HIERARCHY
ROOT SpineBase
{
  OFFSET 0.000000 0.000000 0.000000
  CHANNELS 6 Xposition Yposition Zposition Zrotation Xrotation Yrotation
  JOINT SpineMid
  {
    OFFSET -0.000000 32.464347 0.000000
    CHANNELS 3 Zrotation Xrotation Yrotation
    JOINT SpineShoulder
    {
      OFFSET -0.748262 23.558661 -0.674025
      CHANNELS 3 Zrotation Xrotation Yrotation
      JOINT Neck
      {
        OFFSET -0.300881 7.746628 -0.512202
        CHANNELS 3 Zrotation Xrotation Yrotation
        JOINT Head
        {
          OFFSET -0.879455 12.916075 2.777499
          CHANNELS 3 Zrotation Xrotation Yrotation
          End Site
          {
            OFFSET 0 0 0
          }
        }
      }
      JOINT ShoulderLeft
      {
        OFFSET -5.866563 -4.385098 -12.911694
        CHANNELS 3 Zrotation Xrotation Yrotation
        JOINT ElbowLeft
        {
          OFFSET -4.554105 -15.059876 -7.515042
          CHANNELS 3 Zrotation Xrotation Yrotation
          JOINT WristLeft
          {
            OFFSET 5.519383 -18.790588 6.613595
            CHANNELS 3 Zrotation Xrotation Yrotation
            JOINT HandLeft
            {
              OFFSET 0.445988 -8.445793 3.494575
              CHANNELS 3 Zrotation Xrotation Yrotation
              JOINT HandTipLeft
              {
                OFFSET -0.787659 -6.085615 -0.302077
                CHANNELS 3 Zrotation Xrotation Yrotation
                End Site
                {
                  OFFSET 0 0 0
                }
              }
              JOINT ThumbLeft
              {
                OFFSET 5.384505 4.687485 -0.922664
                CHANNELS 3 Zrotation Xrotation Yrotation
                End Site
                {
                  OFFSET 0 0 0
                }
              }
            }
          }
        }
      }
      JOINT ShoulderRight
      {
        OFFSET -3.494835 -5.936862 -12.351722
        CHANNELS 3 Zrotation Xrotation Yrotation
        JOINT ElbowRight
        {
          OFFSET -5.957278 -21.621272 -4.107151
          CHANNELS 3 Zrotation Xrotation Yrotation
          JOINT WristRight
          {
            OFFSET -5.685055 -19.649297 4.959270
            CHANNELS 3 Zrotation Xrotation Yrotation
            JOINT HandRight
            {
              OFFSET 0.088317 -6.931040 4.116907
              CHANNELS 3 Zrotation Xrotation Yrotation
              JOINT HandTipRight
              {
                OFFSET -4.345801 -6.737848 1.795182
                CHANNELS 3 Zrotation Xrotation Yrotation
                End Site
                {
                  OFFSET 0 0 0
                }
              }
              JOINT ThumbRight
              {
                OFFSET 4.568952 -0.349052 -2.395845
                CHANNELS 3 Zrotation Xrotation Yrotation
                End Site
                {
                  OFFSET 0 0 0
                }
              }
            }
          }
        }
      }
    }
  }
  JOINT HipLeft
  {
    OFFSET -7.578386 0.345353 0.440835
    CHANNELS 3 Zrotation Xrotation Yrotation
    JOINT KneeLeft
    {
      OFFSET 6.490633 -40.604978 3.182224
      CHANNELS 3 Zrotation Xrotation Yrotation
      JOINT AnkleLeft
      {
        OFFSET -5.220603 -25.325110 -3.488563
        CHANNELS 3 Zrotation Xrotation Yrotation
        JOINT FootLeft
        {
          OFFSET 8.225747 -0.311031 3.140236
          CHANNELS 3 Zrotation Xrotation Yrotation
          End Site
          {
            OFFSET 0 0 0
          }
        }
      }
    }
  }
  JOINT HipRight
  {
    OFFSET 3.577543 1.582574 -6.780770
    CHANNELS 3 Zrotation Xrotation Yrotation
    JOINT KneeRight
    {
      OFFSET -11.586674 -30.236472 6.090710
      CHANNELS 3 Zrotation Xrotation Yrotation
      JOINT AnkleRight
      {
        OFFSET 4.891670 -33.145354 0.939881
        CHANNELS 3 Zrotation Xrotation Yrotation
        JOINT FootRight
        {
          OFFSET 1.672189 -2.770451 -13.837675
          CHANNELS 3 Zrotation Xrotation Yrotation
          End Site
          {
            OFFSET 0 0 0
          }
        }
      }
    }
  }
}
MOTION
Frames: 16
Frame Time: 0.033333
172.796468 73.968638 284.208910 1.214011 0.079020 35.997357 -0.529514 -1.371967 -35.986308 -0.059199 0.036891 0.047868 -0.691010 2.393733 -0.166437 0.000000 0.000000 0.000000 2.991887 3.257590 -3.070368 -4.414912 -2.180183 2.772962 0.338822 -3.307596 -0.024438 5.484579 6.911989 -1.236483 0.000000 0.000000 0.000000 0.000000 0.000000 0.000000 -10.207306 -0.822759 2.203818 8.305345 -1.391856 -1.498148 0.600251 1.496313 -0.725317 -0.256039 1.688991 -0.127909 0.000000 0.000000 0.000000 0.000000 0.000000 0.000000 2.558589 -5.089334 -35.768934 -14.344202 3.831034 1.330244 -79.685232 16.352256 24.477447 0.000000 0.000000 0.000000 -1.801888 1.472198 -36.281418 1.431239 -1.280788 0.159622 -4.487548 -6.230629 24.576140 0.000000 0.000000 0.000000
172.709928 74.046936 284.079796 0.898841 0.230789 34.201405 -0.176206 -1.653110 -34.183800 -0.139494 0.042687 0.047658 -0.864327 2.270930 -0.131913 0.000000 0.000000 0.000000 3.176377 3.224362 -3.200696 -4.600300 -2.279236 2.887581 0.114590 -3.036734 -0.108746 5.796579 5.977504 -1.029367 0.000000 0.000000 0.000000 0.000000 0.000000 0.000000 -10.640203 -1.147393 2.300726 8.641125 -1.175433 -1.686773 0.679363 1.277906 -0.701218 -0.943380 2.306333 -0.558667 0.000000 0.000000 0.000000 0.000000 0.000000 0.000000 4.560179 -7.750996 -33.725374 -20.558583 6.178631 2.170903 -62.397638 28.117190 1.767209 0.000000 0.000000 0.000000 -2.262474 1.305696 -34.537927 1.841058 -1.263095 0.180069 -4.325250 -2.938707 23.052997 0.000000 0.000000 0.000000
172.115259 74.234882 283.765830 0.098209 0.496999 33.667605 0.198565 -1.882984 -33.651376 0.091779 -0.056434 0.045984 -0.906472 2.130441 -0.083702 0.000000 0.000000 0.000000 3.505133 3.125088 -3.314027 -4.776890 -2.375613 2.997010 0.061691 -2.418748 -0.100038 7.778987 4.696515 -1.076761 0.000000 0.000000 0.000000 0.000000 0.000000 0.000000 -9.864845 -1.222748 2.138022 8.047534 -1.171675 -1.536897 0.438500 1.629223 -0.802907 -0.882021 1.846942 -0.449367 0.000000 0.000000 0.000000 0.000000 0.000000 0.000000 6.599776 -9.628116 -32.836899 -23.818618 6.261928 2.537210 -66.360507 25.715644 8.568100 0.000000 0.000000 0.000000 -1.698915 -0.144500 -33.707189 1.362484 -0.676283 -0.153493 -4.332839 -0.278716 22.003797 0.000000 0.000000 0.000000
171.252944 74.296245 283.372053 -0.900068 0.815958 34.142648 0.287077 -1.180446 -34.133281 1.098161 -0.749997 0.050628 -0.750857 1.718679 -0.052188 0.000000 0.000000 0.000000 3.866110 2.911424 -3.337584 -4.833630 -2.434852 3.039817 0.595390 -1.978372 0.151034 7.683559 3.879501 -1.222562 0.000000 0.000000 0.000000 0.000000 0.000000 0.000000 -7.523510 -0.987665 1.631394 6.085691 -1.313834 -1.017433 0.398071 1.705715 -0.731632 -0.074399 1.162665 -0.028795 0.000000 0.000000 0.000000 0.000000 0.000000 0.000000 5.397165 -7.067438 -33.503694 -17.846075 2.950236 1.542194 -75.908519 3.442196 39.455528 0.000000 0.000000 0.000000 -0.598905 -2.248762 -33.658771 0.329074 0.132289 -0.683479 -4.265138 -2.922079 22.263428 0.000000 0.000000 0.000000
170.551762 74.288076 283.028535 -1.440153 0.993018 34.153118 0.634646 -1.630107 -34.131609 0.689468 -0.447104 0.030897 -0.689248 0.447443 -0.025516 0.000000 0.000000 0.000000 4.219753 2.699436 -3.301758 -4.775755 -2.520986 3.036198 0.638798 -1.869823 0.174762 9.735918 3.483718 -1.380934 0.000000 0.000000 0.000000 0.000000 0.000000 0.000000 -5.775926 -1.174131 1.343349 4.703018 -1.188413 -0.780754 0.107783 1.848583 -0.853205 -0.123849 0.034736 0.586982 0.000000 0.000000 0.000000 0.000000 0.000000 0.000000 5.486558 -6.565591 -33.478296 -14.758078 0.264045 1.223631 -72.630052 -11.488481 60.587332 0.000000 0.000000 0.000000 0.511098 -3.695558 -33.242351 -0.929738 0.412257 -1.081106 -3.982122 -5.994255 22.432552 0.000000 0.000000 0.000000
170.737914 74.330533 283.247919 -0.796179 0.404981 34.694630 0.424147 -0.786137 -34.688906 -0.000000 0.000000 0.000000 -0.000000 0.000000 0.000000 0.000000 0.000000 0.000000 4.749077 2.322071 -3.176688 -4.211535 -3.291492 2.910330 0.723287 -1.570400 0.422964 9.546790 4.957975 -1.873209 0.000000 0.000000 0.000000 0.000000 0.000000 0.000000 -3.920714 -1.514361 1.102836 3.500047 -1.019299 -0.594286 0.451158 1.490021 -0.608984 -1.100160 0.124606 0.260083 0.000000 0.000000 0.000000 0.000000 0.000000 0.000000 5.839839 -6.611617 -34.011610 -14.255458 -0.545054 1.228887 -62.826153 -22.650678 82.526475 0.000000 0.000000 0.000000 0.008646 -2.372264 -33.997501 -0.267423 0.227182 -0.885727 -3.824927 -12.484602 24.218063 0.000000 0.000000 0.000000
170.794911 74.340783 283.222831 -0.607868 0.379586 35.131260 -0.347501 0.117521 -35.149312 0.959788 -0.275410 0.021013 -0.000000 0.000000 0.000000 0.000000 0.000000 0.000000 4.503141 2.335451 -3.050970 -3.943257 -3.319210 2.794836 0.620936 -2.275567 0.359109 8.011183 5.794926 -1.743902 0.000000 0.000000 0.000000 0.000000 0.000000 0.000000 -3.094716 -1.460010 0.946093 2.564201 -0.851233 -0.498289 0.637804 1.421465 -0.482398 -1.558004 0.755708 -0.361414 0.000000 0.000000 0.000000 0.000000 0.000000 0.000000 5.992892 -6.930921 -34.403413 -10.809476 -2.714245 1.082250 -70.478695 -33.327792 96.128561 0.000000 0.000000 0.000000 -0.239859 -2.376395 -34.376488 -0.284348 0.611593 -0.915709 -1.911676 -28.910428 29.171814 0.000000 0.000000 0.000000
170.719476 74.277416 282.831954 -0.672438 0.939546 35.525850 -0.597751 -0.055831 -35.541524 1.126636 -0.546453 0.020242 -0.000000 0.000000 0.000000 0.000000 0.000000 0.000000 4.164463 2.273180 -2.851718 -3.611020 -3.225823 2.618085 0.663948 -2.238761 0.379250 6.929447 6.616253 -1.797627 0.000000 0.000000 0.000000 0.000000 0.000000 0.000000 -2.921272 -1.485610 0.922282 2.249223 -0.695987 -0.541478 0.840303 1.252756 -0.378797 -0.954949 0.512834 -0.047384 0.000000 0.000000 0.000000 0.000000 0.000000 0.000000 5.115640 -7.770365 -34.888970 -6.903050 -3.577736 1.058442 -74.117372 -39.175406 103.967257 0.000000 0.000000 0.000000 -0.338554 -3.738230 -34.406840 -0.990812 1.348560 -1.247407 1.982609 -44.519103 34.658794 0.000000 0.000000 0.000000
171.060958 74.364786 283.439411 -0.219029 0.046409 35.845006 -0.457684 0.699462 -35.859504 0.999734 -0.345076 0.020647 -0.000000 0.000000 0.000000 0.000000 0.000000 0.000000 3.786214 2.122562 -2.603658 -3.263783 -3.009275 2.400964 0.281790 -2.673716 0.188574 6.511789 6.316991 -1.427625 0.000000 0.000000 0.000000 0.000000 0.000000 0.000000 -3.186066 -1.542621 0.982495 2.348202 -0.548987 -0.678073 1.355354 0.661811 -0.117543 -0.516976 1.381567 -0.285297 0.000000 0.000000 0.000000 0.000000 0.000000 0.000000 4.643488 -5.415706 -35.363972 -3.006474 -4.828751 0.776862 -82.943904 -42.901515 102.310501 0.000000 0.000000 0.000000 -0.416860 -1.893634 -35.080614 -0.528857 1.739869 -0.766251 2.578682 -46.698214 35.274133 0.000000 0.000000 0.000000
171.091273 74.306435 283.886419 -0.261643 -0.532542 35.847185 -0.206508 0.892141 -35.867227 0.951501 -0.069294 0.025591 0.113155 -0.822129 -0.079618 0.000000 0.000000 0.000000 3.413784 1.923349 -2.344177 -3.334426 -2.057960 2.226950 0.560330 -2.932572 0.090319 1.200035 6.719041 -0.786968 0.000000 0.000000 0.000000 0.000000 0.000000 0.000000 -3.728764 -1.535109 1.074646 2.770554 -0.548913 -0.818485 1.532333 0.624668 -0.050758 -0.574362 1.399273 -0.318649 0.000000 0.000000 0.000000 0.000000 0.000000 0.000000 2.753895 -0.060411 -35.532474 9.656162 -10.416968 1.189909 -95.628539 -45.608534 101.492795 0.000000 0.000000 0.000000 -0.117544 -0.908640 -35.306161 -0.162530 1.339490 -0.545141 7.256506 -55.841613 41.095627 0.000000 0.000000 0.000000
170.886999 74.186917 283.719986 -0.512426 -0.169664 36.186590 -0.393559 0.472917 -36.216567 1.109268 0.020950 0.032191 0.039514 -1.055953 -0.080192 0.000000 0.000000 0.000000 3.093031 1.698892 -2.104859 -3.030066 -1.808872 2.011142 0.359094 -2.520793 0.023133 2.952837 6.017562 -0.872708 0.000000 0.000000 0.000000 0.000000 0.000000 0.000000 -3.937356 -1.482990 1.098146 2.890991 -0.455460 -0.907977 1.767556 0.402406 0.099038 -0.718966 1.474852 -0.402115 0.000000 0.000000 0.000000 0.000000 0.000000 0.000000 1.492433 1.824543 -35.881191 16.307113 -12.971610 1.908819 -55.586300 -30.336791 136.808635 0.000000 0.000000 0.000000 -0.541102 -1.742953 -35.463760 -0.055791 1.896636 -0.739493 5.859509 -53.508000 39.512320 0.000000 0.000000 0.000000
170.612400 74.409146 284.262090 -0.798076 -0.994189 36.864519 -0.035317 0.827436 -36.911257 1.322425 0.354480 0.044992 -0.030721 -1.218676 -0.076880 0.000000 0.000000 0.000000 2.876950 1.474365 -1.920902 -2.826978 -1.568107 1.845182 0.137135 -1.267187 -0.008619 2.219161 3.893276 -0.552150 0.000000 0.000000 0.000000 0.000000 0.000000 0.000000 -3.881599 -1.446324 1.079614 2.783492 -0.415587 -0.919458 1.892509 0.299051 0.175496 -0.790564 1.506399 -0.443498 0.000000 0.000000 0.000000 0.000000 0.000000 0.000000 0.943814 4.621582 -36.558324 20.311937 -13.061454 1.975259 -78.870044 -39.158176 116.321756 0.000000 0.000000 0.000000 0.826982 -0.867816 -36.342955 -0.373276 1.195730 -0.529968 1.008324 -40.628870 34.766476 0.000000 0.000000 0.000000
170.246992 74.303866 284.748780 -1.139223 -1.658389 36.700795 0.138438 0.940010 -36.775201 1.589024 0.823935 0.060195 -0.082881 -1.359838 -0.075954 0.000000 0.000000 0.000000 2.815235 1.281835 -1.827481 -2.773721 -1.369403 1.762827 -0.000000 0.000000 0.000000 2.494527 0.928834 -0.264927 0.000000 0.000000 0.000000 0.000000 0.000000 0.000000 -4.132024 -1.443451 1.122407 3.096007 -0.536015 -0.922071 2.011761 0.449589 0.231002 -0.189698 0.652961 0.166963 0.000000 0.000000 0.000000 0.000000 0.000000 0.000000 1.693754 9.450323 -36.017503 23.875577 -18.388923 3.750006 -73.979339 -32.280923 116.301899 0.000000 0.000000 0.000000 2.346328 -0.131022 -36.426049 -0.818256 0.364849 -0.301403 -2.826478 -22.424479 29.514205 0.000000 0.000000 0.000000
170.036415 74.063619 285.094949 -1.273182 -2.000503 36.158593 -0.001764 0.896331 -36.255732 1.801521 1.280683 0.072076 0.017989 -1.635266 -0.115317 0.000000 0.000000 0.000000 2.797676 1.149968 -1.776272 -2.761330 -1.234749 1.718429 -0.000000 0.000000 0.000000 3.071583 0.339392 -0.206216 0.000000 0.000000 0.000000 0.000000 0.000000 0.000000 -4.291772 -1.378297 1.134613 3.318301 -0.805605 -0.862269 2.309866 0.405533 0.358797 -0.984606 -0.401525 0.697120 0.000000 0.000000 0.000000 0.000000 0.000000 0.000000 0.945869 13.587112 -35.160470 27.221986 -21.701666 5.185969 -63.310875 -21.163902 116.091055 0.000000 0.000000 0.000000 3.513771 0.568614 -36.170649 -1.227687 -0.532189 -0.048828 -3.680234 -15.145189 26.981445 0.000000 0.000000 0.000000
169.964321 73.791992 285.273175 -1.211405 -2.077748 35.460757 -0.344492 0.759160 -35.570960 1.929573 1.662728 0.080014 0.099967 -1.828190 -0.144882 0.000000 0.000000 0.000000 2.765720 1.134410 -1.754839 -2.730303 -1.217236 1.698445 -0.000000 0.000000 0.000000 3.356495 0.595666 -0.262133 0.000000 0.000000 0.000000 0.000000 0.000000 0.000000 -4.532209 -1.288831 1.155336 3.705869 -1.169347 -0.770366 2.160617 0.521867 0.240338 -1.538499 -0.204313 0.526284 0.000000 0.000000 0.000000 0.000000 0.000000 0.000000 2.457499 12.553968 -34.493881 20.472017 -21.516182 4.025038 -53.365746 -15.741041 115.773171 0.000000 0.000000 0.000000 4.316333 1.067402 -35.699341 -1.679512 -1.302197 0.140489 -3.962255 -10.777252 24.991250 0.000000 0.000000 0.000000
170.083432 73.528780 285.232756 -0.939723 -1.850409 34.566658 -0.828023 0.529011 -34.677296 1.918457 1.888124 0.083247 0.140654 -1.940423 -0.160572 0.000000 0.000000 0.000000 2.773226 1.131430 -1.757751 -2.737833 -1.214623 1.701337 -0.000000 0.000000 0.000000 4.677067 1.225927 -0.443137 0.000000 0.000000 0.000000 0.000000 0.000000 0.000000 -4.632882 -1.233017 1.159806 3.959739 -1.448762 -0.672008 2.257234 0.409971 0.277148 -1.703291 0.281224 0.313741 0.000000 0.000000 0.000000 0.000000 0.000000 0.000000 4.952119 7.676714 -33.760617 8.634559 -17.485747 1.727128 -41.334217 -13.030391 118.394013 0.000000 0.000000 0.000000 3.782670 1.531946 -34.977658 -1.294953 -1.565845 0.319252 -4.074199 -8.803368 24.403559 0.000000 0.000000 0.000000
